<svg xmlns="http://www.w3.org/2000/svg" version="1.1" xmlns:xlink="http://www.w3.org/1999/xlink" xmlns:svgjs="http://svgjs.com/svgjs" width="800px" height="800px"><svg height="800px" width="800px" version="1.1" id="SvgjsSvg1000" xmlns="http://www.w3.org/2000/svg" xmlns:xlink="http://www.w3.org/1999/xlink" viewBox="0 0 15.96 15.96" xml:space="preserve">
<g>
	<g>
		<path style="fill:#030104;" d="M14.867,10.591l-1.195-3.533c0.368-0.517,0.472-1.179,0.267-1.785
			c-0.204-0.606-0.688-1.07-1.296-1.258l-1.197-3.54C11.306,0.062,11.04,0,10.892,0c-0.369,0-0.569,0.365-0.682,0.705
			C9.348,4.14,5.462,5.245,5.397,5.264C5.045,5.383,4.898,5.599,4.836,5.76c-0.105,0.274-0.019,0.524,0.03,0.632l1.195,3.532
			c0.125,0.368,0.427,0.587,0.811,0.587c0.157,0,0.279-0.037,0.312-0.048c0.981-0.332,1.941-0.501,2.854-0.501
			c2.434,0,3.78,1.208,3.792,1.22l0.063,0.048c0.106,0.067,0.314,0.182,0.52,0.182c0.178,0,0.335-0.08,0.43-0.221
			C15.009,10.943,14.896,10.661,14.867,10.591z M10.037,9.089c-1.007,0-2.062,0.184-3.148,0.556L5.686,6.09
			c0.417-0.12,4.012-1.246,5.19-4.571l1.101,3.252l0.707,2.091l1.086,3.209C13.065,9.647,11.805,9.089,10.037,9.089z"></path>
		<path style="fill:#030104;" d="M5.581,11.977c0,0,0.233-0.753,0.118-1.099L4.33,6.744c0,0-0.083-0.517-0.631-0.332L2.001,6.987
			c0,0-1.322,0.512-0.883,1.81l0.605,1.786c0,0,0.479,1.508,1.794,1.063c0,0,0.517-0.154,0.75,0.68l1.091,3.229
			c0,0,0.093,0.547,0.613,0.37c0,0,1.598-0.277,0.32-1.573C6.662,13.573,5.581,13.049,5.581,11.977z"></path>
		<path style="fill:#030104;" d="M10.682,3.486c-0.186-0.023-0.362,0.11-0.386,0.299C10.12,5.17,8.064,5.752,8.043,5.758
			C7.858,5.809,7.751,5.999,7.801,6.183c0.042,0.153,0.181,0.254,0.333,0.254c0.03,0,0.061-0.004,0.092-0.012
			c0.103-0.028,2.522-0.708,2.756-2.553C11.005,3.682,10.871,3.51,10.682,3.486z"></path>
	</g>
</g>
</svg><style>@media (prefers-color-scheme: light) { :root { filter: none; } }
@media (prefers-color-scheme: dark) { :root { filter: contrast(0.8333333333333334) brightness(1.7); } }
</style></svg>